<svg xmlns="http://www.w3.org/2000/svg" width="512" height="512" viewBox="0 0 512 512" fill="none">
<g shape-rendering="geometricPrecision">
  <polygon points="338.4,254.2 329.0,302.6 368.1,339.0" fill="#8253c2"/>
  <polygon points="338.4,254.2 368.1,339.0 386.2,272.5" fill="#7a4da8"/>
  <polygon points="329.0,302.6 306.9,338.3 368.1,339.0" fill="#8f6bbf"/>
  <polygon points="306.9,338.3 326.2,386.0 368.1,339.0" fill="#b8a3da"/>
  <polygon points="306.9,338.3 274.9,358.8 266.7,403.0" fill="#7f80c6"/>
  <polygon points="306.9,338.3 266.7,403.0 326.2,386.0" fill="#c7c3e3"/>
  <polygon points="274.9,358.8 237.3,358.2 266.7,403.0" fill="#7683cf"/>
  <polygon points="237.3,358.2 218.9,399.2 266.7,403.0" fill="#6284d4"/>
  <polygon points="237.3,358.2 205.8,339.9 167.9,362.0" fill="#735ebc"/>
  <polygon points="237.3,358.2 167.9,362.0 218.9,399.2" fill="#5f5dbe"/>
  <polygon points="205.8,339.9 183.4,301.5 167.9,362.0" fill="#776ac5"/>
  <polygon points="183.4,301.5 134.0,314.1 167.9,362.0" fill="#5453a9"/>
  <polygon points="183.4,301.5 175.2,256.5 126.8,242.8" fill="#875bc0"/>
  <polygon points="183.4,301.5 126.8,242.8 134.0,314.1" fill="#8472c8"/>
  <polygon points="175.2,256.5 183.3,210.2 126.8,242.8" fill="#7850ba"/>
  <polygon points="183.3,210.2 142.3,176.1 126.8,242.8" fill="#5c3697"/>
  <polygon points="183.3,210.2 206.9,172.6 187.6,126.5" fill="#685aa6"/>
  <polygon points="183.3,210.2 187.6,126.5 142.3,176.1" fill="#654ea2"/>
  <polygon points="206.9,172.6 239.3,153.4 187.6,126.5" fill="#5a409f"/>
  <polygon points="239.3,153.4 237.9,108.0 187.6,126.5" fill="#3b3289"/>
  <polygon points="239.3,153.4 272.8,153.5 292.1,113.9" fill="#4a4ab4"/>
  <polygon points="239.3,153.4 292.1,113.9 237.9,108.0" fill="#433ea6"/>
  <polygon points="272.8,153.5 306.2,172.8 292.1,113.9" fill="#4c3293"/>
  <polygon points="306.2,172.8 350.6,154.5 292.1,113.9" fill="#7a4bb1"/>
  <polygon points="306.2,172.8 328.7,211.6 377.7,199.8" fill="#724eaf"/>
  <polygon points="306.2,172.8 377.7,199.8 350.6,154.5" fill="#58318c"/>
  <polygon points="328.7,211.6 338.4,254.2 377.7,199.8" fill="#4f2d8f"/>
  <polygon points="338.4,254.2 386.2,272.5 377.7,199.8" fill="#482083"/>
  <polygon points="386.2,272.5 368.1,339.0 434.7,229.9" fill="#342d83"/>
  <polygon points="368.1,339.0 420.2,334.8 434.7,229.9" fill="#3d3298"/>
  <polygon points="368.1,339.0 326.2,386.0 374.5,403.8" fill="#535699"/>
  <polygon points="368.1,339.0 374.5,403.8 420.2,334.8" fill="#535299"/>
  <polygon points="326.2,386.0 266.7,403.0 374.5,403.8" fill="#5a4f8f"/>
  <polygon points="266.7,403.0 301.1,442.4 374.5,403.8" fill="#7a68a6"/>
  <polygon points="266.7,403.0 218.9,399.2 229.8,450.0" fill="#524794"/>
  <polygon points="266.7,403.0 229.8,450.0 301.1,442.4" fill="#3d2575"/>
  <polygon points="218.9,399.2 167.9,362.0 229.8,450.0" fill="#443888"/>
  <polygon points="167.9,362.0 147.8,415.4 229.8,450.0" fill="#514292"/>
  <polygon points="167.9,362.0 134.0,314.1 97.6,348.5" fill="#463685"/>
  <polygon points="167.9,362.0 97.6,348.5 147.8,415.4" fill="#494295"/>
  <polygon points="134.0,314.1 126.8,242.8 97.6,348.5" fill="#31236e"/>
  <polygon points="126.8,242.8 73.8,261.8 97.6,348.5" fill="#543a87"/>
  <polygon points="126.8,242.8 142.3,176.1 87.2,184.2" fill="#b098da"/>
  <polygon points="126.8,242.8 87.2,184.2 73.8,261.8" fill="#9c7cc2"/>
  <polygon points="142.3,176.1 187.6,126.5 87.2,184.2" fill="#ac93d4"/>
  <polygon points="187.6,126.5 126.1,121.4 87.2,184.2" fill="#6f4dac"/>
  <polygon points="187.6,126.5 237.9,108.0 198.2,69.7" fill="#d8c5ea"/>
  <polygon points="187.6,126.5 198.2,69.7 126.1,121.4" fill="#977fc4"/>
  <polygon points="237.9,108.0 292.1,113.9 198.2,69.7" fill="#8376a9"/>
  <polygon points="292.1,113.9 282.7,61.4 198.2,69.7" fill="#8f66c3"/>
  <polygon points="292.1,113.9 350.6,154.5 364.0,99.8" fill="#654c99"/>
  <polygon points="292.1,113.9 364.0,99.8 282.7,61.4" fill="#7153a4"/>
  <polygon points="350.6,154.5 377.7,199.8 364.0,99.8" fill="#8e8bc4"/>
  <polygon points="377.7,199.8 413.3,163.7 364.0,99.8" fill="#908bba"/>
  <polygon points="377.7,199.8 386.2,272.5 434.7,229.9" fill="#4d69b5"/>
  <polygon points="377.7,199.8 434.7,229.9 413.3,163.7" fill="#6484c6"/>
  <polygon points="434.7,229.9 420.2,334.8 450.1,380.8" fill="#5453aa"/>
  <polygon points="434.7,229.9 450.1,380.8 482.6,283.8" fill="#7151ac"/>
  <polygon points="420.2,334.8 374.5,403.8 450.1,380.8" fill="#4c2e9d"/>
  <polygon points="374.5,403.8 381.4,455.1 450.1,380.8" fill="#6c3c9d"/>
  <polygon points="374.5,403.8 301.1,442.4 278.9,495.5" fill="#4b2976"/>
  <polygon points="374.5,403.8 278.9,495.5 381.4,455.1" fill="#3e1b72"/>
  <polygon points="301.1,442.4 229.8,450.0 278.9,495.5" fill="#47247d"/>
  <polygon points="229.8,450.0 181.1,481.5 278.9,495.5" fill="#452481"/>
  <polygon points="229.8,450.0 147.8,415.4 94.7,426.0" fill="#624093"/>
  <polygon points="229.8,450.0 94.7,426.0 181.1,481.5" fill="#4b2f8b"/>
  <polygon points="147.8,415.4 97.6,348.5 94.7,426.0" fill="#432b77"/>
  <polygon points="97.6,348.5 39.4,334.9 94.7,426.0" fill="#463081"/>
  <polygon points="97.6,348.5 73.8,261.8 27.9,232.4" fill="#7a63aa"/>
  <polygon points="97.6,348.5 27.9,232.4 39.4,334.9" fill="#6545a8"/>
  <polygon points="73.8,261.8 87.2,184.2 27.9,232.4" fill="#6e4da0"/>
  <polygon points="87.2,184.2 62.4,127.9 27.9,232.4" fill="#9073bd"/>
  <polygon points="87.2,184.2 126.1,121.4 134.2,52.2" fill="#a895da"/>
  <polygon points="87.2,184.2 134.2,52.2 62.4,127.9" fill="#c7b4e7"/>
  <polygon points="126.1,121.4 198.2,69.7 134.2,52.2" fill="#c3a4f0"/>
  <polygon points="198.2,69.7 225.9,17.0 134.2,52.2" fill="#ddceef"/>
  <polygon points="198.2,69.7 282.7,61.4 330.2,28.9" fill="#a486d1"/>
  <polygon points="198.2,69.7 330.2,28.9 225.9,17.0" fill="#bca2e2"/>
  <polygon points="282.7,61.4 364.0,99.8 330.2,28.9" fill="#7f54b8"/>
  <polygon points="364.0,99.8 414.0,83.3 330.2,28.9" fill="#7143af"/>
  <polygon points="364.0,99.8 413.3,163.7 470.6,172.7" fill="#a994d2"/>
  <polygon points="364.0,99.8 470.6,172.7 414.0,83.3" fill="#8760b8"/>
  <polygon points="413.3,163.7 434.7,229.9 470.6,172.7" fill="#927bca"/>
  <polygon points="434.7,229.9 482.6,283.8 470.6,172.7" fill="#825fb4"/>
</g>
</svg>
